<svg width="32" height="32" viewBox="0 0 32 32" fill="none" xmlns="http://www.w3.org/2000/svg">
<g clip-path="url(#clip0_8481_1060)">
<path d="M8.34437 17.3443C8.20399 17.2038 8.12509 17.0133 8.125 16.8146V8.125H16.8146C17.0133 8.12509 17.2038 8.20399 17.3443 8.34437L26.6555 17.6556C26.796 17.7962 26.875 17.9869 26.875 18.1857C26.875 18.3845 26.796 18.5752 26.6555 18.7159L18.7187 26.6555C18.578 26.796 18.3874 26.875 18.1885 26.875C17.9897 26.875 17.799 26.796 17.6584 26.6555L8.34437 17.3443Z" stroke="#622F60" stroke-width="1.19999" stroke-linecap="round" stroke-linejoin="round"/>
<path d="M12.775 12.25C12.775 12.5399 12.5399 12.775 12.25 12.775C11.96 12.775 11.725 12.5399 11.725 12.25C11.725 11.96 11.96 11.725 12.25 11.725C12.5399 11.725 12.775 11.96 12.775 12.25Z" fill="#622F60" stroke="#622F60" stroke-width="1.19999"/>
</g>
<defs>
<clipPath id="clip0_8481_1060">
<rect width="32" height="32" fill="white"/>
</clipPath>
</defs>
</svg>
